<svg width="723" height="87" viewBox="0 0 723 87" fill="none" xmlns="http://www.w3.org/2000/svg">
<mask id="mask0_826_8" style="mask-type:luminance" maskUnits="userSpaceOnUse" x="-1" y="-1" width="106" height="88">
<path d="M0 0H104.345V86.6286H0V0Z" fill="white" stroke="white" stroke-width="0.578588"/>
</mask>
<g mask="url(#mask0_826_8)">
<path d="M62.6601 81.7514C56.6302 81.7514 50.7207 80.2254 45.4821 77.3292C42.7024 78.6972 39.8512 79.5959 36.902 79.5959C19.918 79.5959 6.10156 64.6898 6.10156 46.3668C6.10156 28.0461 19.918 13.1399 36.902 13.1399C39.8512 13.1399 42.7024 14.0363 45.4821 15.4066C50.7207 12.5104 56.6302 10.9844 62.6601 10.9844C73.3223 10.9844 83.3179 15.7069 90.0834 23.9375L91.5101 25.6748L89.8583 27.2008C74.5862 41.3217 62.192 32.4772 52.2321 25.37C49.9784 23.7595 47.7759 22.189 45.6203 20.9055C37.0559 26.6091 31.9845 36.0275 31.9845 46.3668C31.9845 56.7084 37.0536 66.1268 45.6203 71.8281C47.7759 70.5468 49.9784 68.9741 52.2321 67.3658C62.192 60.2586 74.5862 51.4141 89.8583 65.535L91.5101 67.061L90.0834 68.7983C83.3179 77.0289 73.3223 81.7514 62.6601 81.7514ZM50.4175 74.444C54.2584 76.1102 58.4247 76.9799 62.6601 76.9799C71.1065 76.9799 79.0691 73.5543 84.8471 67.5082C73.3022 58.1965 64.4056 64.5452 55.0141 71.2475C53.496 72.3308 51.9668 73.4208 50.4175 74.444ZM36.902 17.9091C22.5551 17.9091 10.8809 30.6754 10.8809 46.3668C10.8809 62.0582 22.5529 74.8244 36.902 74.8244C38.1548 74.8244 39.4232 74.5864 40.705 74.1638C32.1784 67.4881 27.2029 57.3824 27.2029 46.3668C27.2029 35.3534 32.1784 25.2455 40.705 18.5698C39.4232 18.1494 38.1548 17.9091 36.902 17.9091ZM50.4175 18.2918C51.9668 19.3128 53.496 20.405 55.0141 21.4883C64.4056 28.1906 73.3022 34.5393 84.8471 25.2277C79.0691 19.1815 71.1065 15.7559 62.6601 15.7559C58.4247 15.7559 54.2584 16.6256 50.4175 18.2918Z" fill="#0097B2" stroke="#0097B2" stroke-width="0.578588"/>
</g>
<mask id="path-3-outside-1_826_8" maskUnits="userSpaceOnUse" x="110.086" y="22.1445" width="613" height="51" fill="black">
<rect fill="white" x="110.086" y="22.1445" width="613" height="51"/>
<path d="M137.442 23.1445C140.159 23.1445 142.582 23.4167 144.71 23.96C146.838 24.5034 148.695 25.2507 150.28 26.2016C151.865 27.1526 153.179 28.2846 154.22 29.5978C155.307 30.9111 156.19 32.3375 156.87 33.8772H151.843C151.526 32.9264 150.96 31.9981 150.145 31.0926C149.375 30.1416 148.356 29.304 147.088 28.5795C145.865 27.8549 144.439 27.2661 142.809 26.8132C141.224 26.3604 139.457 26.134 137.51 26.134C134.657 26.134 132.008 26.6549 129.563 27.6963C127.163 28.7379 125.079 30.1867 123.313 32.0433C121.547 33.9 120.166 36.1192 119.169 38.7005C118.218 41.2364 117.743 44.0446 117.743 47.1239C117.743 50.022 118.196 52.807 119.102 55.4787C120.053 58.1505 121.433 60.5058 123.245 62.5436C125.056 64.5815 127.321 66.2109 130.038 67.4336C132.755 68.6563 135.88 69.2684 139.412 69.2684C145.752 69.2684 151.231 67.0939 155.85 62.7465L157.888 64.5814C157.299 65.2605 156.439 66.0528 155.307 66.9582C154.175 67.8639 152.749 68.7248 151.028 69.5399C149.352 70.3098 147.36 70.9666 145.05 71.51C142.786 72.0535 140.204 72.3246 137.306 72.3246C132.732 72.3245 128.792 71.623 125.486 70.2192C122.181 68.7701 119.464 66.8908 117.335 64.5814C115.207 62.2266 113.622 59.5544 112.581 56.5657C111.584 53.5316 111.086 50.4292 111.086 47.2592C111.086 43.5911 111.72 40.2855 112.988 37.342C114.256 34.3532 116.045 31.8172 118.355 29.7341C120.664 27.6057 123.427 25.9752 126.642 24.8431C129.902 23.7111 133.502 23.1445 137.442 23.1445ZM409.991 55.0033C409.991 55.909 410.013 56.8147 410.058 57.7203C410.104 58.626 410.262 59.5316 410.534 60.4373C410.805 61.2977 411.213 62.1809 411.757 63.0866C412.3 63.9922 413.092 64.898 414.134 65.8036C415.447 66.981 416.829 67.8642 418.278 68.453C419.772 69.0416 421.471 69.3361 423.373 69.3361C425.591 69.336 427.72 69.0192 429.757 68.3853C431.795 67.7513 433.63 66.5513 435.26 64.7852C436.052 63.9134 436.671 63.0411 437.117 62.1692L437.478 61.4223C437.884 60.5506 438.186 59.679 438.385 58.8073C438.611 57.7657 438.746 56.7465 438.791 55.7502C438.837 54.7087 438.86 53.6894 438.86 52.6931V23.96H441.848V54.9357C441.848 57.3357 441.464 59.5999 440.694 61.7281C439.924 63.8112 438.769 65.6457 437.229 67.2307C435.735 68.8155 433.855 70.0604 431.591 70.9661C429.372 71.8717 426.814 72.3245 423.916 72.3246C419.297 72.3246 415.651 71.691 412.979 70.4231C410.307 69.1098 408.292 67.5017 406.934 65.5997C405.575 63.6525 404.714 61.5692 404.352 59.3503C403.99 57.0863 403.809 55.026 403.809 53.1695V23.96H409.991V55.0033ZM477.017 23.1445C479.734 23.1446 482.157 23.4166 484.285 23.96C486.413 24.5034 488.27 25.2506 489.855 26.2016C491.44 27.1526 492.754 28.2846 493.795 29.5978C494.882 30.9111 495.766 32.3375 496.445 33.8772H491.418C491.101 32.9263 490.534 31.9982 489.719 31.0926C488.949 30.1417 487.931 29.304 486.663 28.5795C485.44 27.855 484.014 27.2661 482.384 26.8132C480.799 26.3604 479.032 26.134 477.085 26.134C474.232 26.134 471.582 26.6548 469.137 27.6963C466.737 28.7379 464.653 30.1867 462.887 32.0433C461.121 33.9 459.741 36.1193 458.744 38.7005C457.793 41.2365 457.317 44.0445 457.317 47.1239C457.317 50.022 457.771 52.807 458.677 55.4787C459.628 58.1505 461.008 60.5058 462.82 62.5436C464.631 64.5812 466.895 66.211 469.612 67.4336C472.329 68.6563 475.454 69.2684 478.986 69.2684C485.326 69.2684 490.806 67.0939 495.425 62.7465L497.463 64.5814C496.875 65.2605 496.014 66.0528 494.882 66.9582C493.75 67.8639 492.323 68.7248 490.602 69.5399C488.927 70.3097 486.934 70.9667 484.625 71.51C482.361 72.0535 479.779 72.3246 476.881 72.3246C472.307 72.3246 468.367 71.623 465.061 70.2192C461.756 68.7701 459.039 66.8908 456.91 64.5814C454.782 62.2265 453.196 59.5545 452.155 56.5657C451.158 53.5316 450.661 50.4292 450.661 47.2592C450.661 43.5912 451.295 40.2855 452.562 37.342C453.83 34.3533 455.619 31.8172 457.929 29.7341C460.238 27.6057 463.001 25.9753 466.216 24.8431C469.477 23.711 473.077 23.1445 477.017 23.1445ZM642.572 23.1445C647.101 23.1445 651.019 23.9597 654.324 25.59C657.675 27.175 660.438 29.1902 662.612 31.6356C664.785 34.081 666.393 36.753 667.435 39.6512C668.476 42.5041 668.997 45.1986 668.997 47.7345C668.997 49.4101 668.748 51.1765 668.249 53.0332C667.797 54.8899 667.095 56.7467 666.144 58.6034C665.238 60.4148 664.061 62.158 662.612 63.8335C661.162 65.4638 659.442 66.9135 657.449 68.1815C655.502 69.4494 653.283 70.4677 650.792 71.2376C648.347 71.9621 645.607 72.3246 642.572 72.3246C638.089 72.3245 634.24 71.5325 631.025 69.9477C627.81 68.3174 625.16 66.2789 623.077 63.8335C620.994 61.3882 619.454 58.7393 618.458 55.8865C617.507 52.9882 617.032 50.2705 617.032 47.7345C617.032 45.1535 617.507 42.4139 618.458 39.516C619.454 36.6177 620.994 33.9681 623.077 31.5679C625.16 29.1225 627.81 27.1074 631.025 25.5224C634.24 23.9375 638.089 23.1446 642.572 23.1445ZM718.601 60.302H718.872V23.96H721.997V72.3246H721.657L683.957 35.168H683.685V71.51H680.56V23.1445H680.9L718.601 60.302ZM198.088 27.6963H173.566V44.7461H194.623V47.8708H173.566V67.7737H198.088V71.51H167.384V23.96H198.088V27.6963ZM214.429 67.7737H238.95V71.51H208.247V23.96H214.429V67.7737ZM255.292 67.7737H279.814V71.51H249.111V23.96H255.292V67.7737ZM344.425 27.6963H319.903V44.7461H340.961V47.8708H319.903V67.7737H344.425V71.51H313.721V23.96H344.425V27.6963ZM370.888 23.96C374.646 23.96 378.088 24.5712 381.212 25.7939C384.337 26.9713 387.009 28.6241 389.228 30.7525C391.492 32.8356 393.235 35.3269 394.458 38.2251C395.726 41.1234 396.361 44.2482 396.361 47.5993C396.361 51.0862 395.704 54.3015 394.391 57.2449C393.123 60.1431 391.356 62.6569 389.092 64.7852C386.873 66.9135 384.269 68.5665 381.28 69.7438C378.291 70.9211 375.099 71.51 371.703 71.51H355.264V23.96H370.888ZM546.493 71.51H539.904L533.383 57.5164H509.947L503.97 71.51H500.846L520.952 23.96H524.349L546.493 71.51ZM584.35 27.6963H566.145V71.51H559.963V27.6963H541.759V23.96H584.35V27.6963ZM602.758 71.51H596.576V23.96H602.758V71.51ZM642.709 26.134C639.992 26.134 637.478 26.6771 635.168 27.764C632.859 28.8055 630.844 30.2776 629.123 32.1796C627.447 34.0814 626.111 36.368 625.115 39.0396C624.164 41.6661 623.689 44.5647 623.689 47.7345C623.689 50.9045 624.164 53.8262 625.115 56.4981C626.111 59.1245 627.447 61.3886 629.123 63.2905C630.844 65.1925 632.859 66.6869 635.168 67.7737C637.478 68.8153 639.992 69.3361 642.709 69.3361C645.381 69.3361 647.894 68.8153 650.249 67.7737C652.649 66.6869 654.732 65.1924 656.498 63.2905C658.31 61.3886 659.736 59.1244 660.778 56.4981C661.819 53.8262 662.34 50.9045 662.34 47.7345C662.34 44.5647 661.819 41.6661 660.778 39.0396C659.736 36.3681 658.31 34.0814 656.498 32.1796C654.732 30.2776 652.649 28.8055 650.249 27.764C647.894 26.6771 645.381 26.134 642.709 26.134ZM361.446 68.5206H368.917C372.631 68.5206 375.778 67.9093 378.359 66.6867C380.986 65.4187 383.137 63.7883 384.813 61.7958C386.488 59.8032 387.711 57.584 388.481 55.1386C389.251 52.6481 389.636 50.1798 389.636 47.7345C389.636 45.0175 389.183 42.4134 388.277 39.9227C387.372 37.387 386.035 35.1684 384.27 33.2665C382.549 31.3193 380.397 29.7792 377.816 28.6471C375.235 27.515 372.269 26.9485 368.917 26.9485H361.446V68.5206ZM511.238 54.4594H531.957L521.292 31.5679H521.02L511.238 54.4594Z"/>
</mask>
<path d="M137.442 23.1445C140.159 23.1445 142.582 23.4167 144.71 23.96C146.838 24.5034 148.695 25.2507 150.28 26.2016C151.865 27.1526 153.179 28.2846 154.22 29.5978C155.307 30.9111 156.19 32.3375 156.87 33.8772H151.843C151.526 32.9264 150.96 31.9981 150.145 31.0926C149.375 30.1416 148.356 29.304 147.088 28.5795C145.865 27.8549 144.439 27.2661 142.809 26.8132C141.224 26.3604 139.457 26.134 137.51 26.134C134.657 26.134 132.008 26.6549 129.563 27.6963C127.163 28.7379 125.079 30.1867 123.313 32.0433C121.547 33.9 120.166 36.1192 119.169 38.7005C118.218 41.2364 117.743 44.0446 117.743 47.1239C117.743 50.022 118.196 52.807 119.102 55.4787C120.053 58.1505 121.433 60.5058 123.245 62.5436C125.056 64.5815 127.321 66.2109 130.038 67.4336C132.755 68.6563 135.88 69.2684 139.412 69.2684C145.752 69.2684 151.231 67.0939 155.85 62.7465L157.888 64.5814C157.299 65.2605 156.439 66.0528 155.307 66.9582C154.175 67.8639 152.749 68.7248 151.028 69.5399C149.352 70.3098 147.36 70.9666 145.05 71.51C142.786 72.0535 140.204 72.3246 137.306 72.3246C132.732 72.3245 128.792 71.623 125.486 70.2192C122.181 68.7701 119.464 66.8908 117.335 64.5814C115.207 62.2266 113.622 59.5544 112.581 56.5657C111.584 53.5316 111.086 50.4292 111.086 47.2592C111.086 43.5911 111.72 40.2855 112.988 37.342C114.256 34.3532 116.045 31.8172 118.355 29.7341C120.664 27.6057 123.427 25.9752 126.642 24.8431C129.902 23.7111 133.502 23.1445 137.442 23.1445ZM409.991 55.0033C409.991 55.909 410.013 56.8147 410.058 57.7203C410.104 58.626 410.262 59.5316 410.534 60.4373C410.805 61.2977 411.213 62.1809 411.757 63.0866C412.3 63.9922 413.092 64.898 414.134 65.8036C415.447 66.981 416.829 67.8642 418.278 68.453C419.772 69.0416 421.471 69.3361 423.373 69.3361C425.591 69.336 427.72 69.0192 429.757 68.3853C431.795 67.7513 433.63 66.5513 435.26 64.7852C436.052 63.9134 436.671 63.0411 437.117 62.1692L437.478 61.4223C437.884 60.5506 438.186 59.679 438.385 58.8073C438.611 57.7657 438.746 56.7465 438.791 55.7502C438.837 54.7087 438.86 53.6894 438.86 52.6931V23.96H441.848V54.9357C441.848 57.3357 441.464 59.5999 440.694 61.7281C439.924 63.8112 438.769 65.6457 437.229 67.2307C435.735 68.8155 433.855 70.0604 431.591 70.9661C429.372 71.8717 426.814 72.3245 423.916 72.3246C419.297 72.3246 415.651 71.691 412.979 70.4231C410.307 69.1098 408.292 67.5017 406.934 65.5997C405.575 63.6525 404.714 61.5692 404.352 59.3503C403.99 57.0863 403.809 55.026 403.809 53.1695V23.96H409.991V55.0033ZM477.017 23.1445C479.734 23.1446 482.157 23.4166 484.285 23.96C486.413 24.5034 488.27 25.2506 489.855 26.2016C491.44 27.1526 492.754 28.2846 493.795 29.5978C494.882 30.9111 495.766 32.3375 496.445 33.8772H491.418C491.101 32.9263 490.534 31.9982 489.719 31.0926C488.949 30.1417 487.931 29.304 486.663 28.5795C485.44 27.855 484.014 27.2661 482.384 26.8132C480.799 26.3604 479.032 26.134 477.085 26.134C474.232 26.134 471.582 26.6548 469.137 27.6963C466.737 28.7379 464.653 30.1867 462.887 32.0433C461.121 33.9 459.741 36.1193 458.744 38.7005C457.793 41.2365 457.317 44.0445 457.317 47.1239C457.317 50.022 457.771 52.807 458.677 55.4787C459.628 58.1505 461.008 60.5058 462.82 62.5436C464.631 64.5812 466.895 66.211 469.612 67.4336C472.329 68.6563 475.454 69.2684 478.986 69.2684C485.326 69.2684 490.806 67.0939 495.425 62.7465L497.463 64.5814C496.875 65.2605 496.014 66.0528 494.882 66.9582C493.75 67.8639 492.323 68.7248 490.602 69.5399C488.927 70.3097 486.934 70.9667 484.625 71.51C482.361 72.0535 479.779 72.3246 476.881 72.3246C472.307 72.3246 468.367 71.623 465.061 70.2192C461.756 68.7701 459.039 66.8908 456.91 64.5814C454.782 62.2265 453.196 59.5545 452.155 56.5657C451.158 53.5316 450.661 50.4292 450.661 47.2592C450.661 43.5912 451.295 40.2855 452.562 37.342C453.83 34.3533 455.619 31.8172 457.929 29.7341C460.238 27.6057 463.001 25.9753 466.216 24.8431C469.477 23.711 473.077 23.1445 477.017 23.1445ZM642.572 23.1445C647.101 23.1445 651.019 23.9597 654.324 25.59C657.675 27.175 660.438 29.1902 662.612 31.6356C664.785 34.081 666.393 36.753 667.435 39.6512C668.476 42.5041 668.997 45.1986 668.997 47.7345C668.997 49.4101 668.748 51.1765 668.249 53.0332C667.797 54.8899 667.095 56.7467 666.144 58.6034C665.238 60.4148 664.061 62.158 662.612 63.8335C661.162 65.4638 659.442 66.9135 657.449 68.1815C655.502 69.4494 653.283 70.4677 650.792 71.2376C648.347 71.9621 645.607 72.3246 642.572 72.3246C638.089 72.3245 634.24 71.5325 631.025 69.9477C627.81 68.3174 625.16 66.2789 623.077 63.8335C620.994 61.3882 619.454 58.7393 618.458 55.8865C617.507 52.9882 617.032 50.2705 617.032 47.7345C617.032 45.1535 617.507 42.4139 618.458 39.516C619.454 36.6177 620.994 33.9681 623.077 31.5679C625.16 29.1225 627.81 27.1074 631.025 25.5224C634.24 23.9375 638.089 23.1446 642.572 23.1445ZM718.601 60.302H718.872V23.96H721.997V72.3246H721.657L683.957 35.168H683.685V71.51H680.56V23.1445H680.9L718.601 60.302ZM198.088 27.6963H173.566V44.7461H194.623V47.8708H173.566V67.7737H198.088V71.51H167.384V23.96H198.088V27.6963ZM214.429 67.7737H238.95V71.51H208.247V23.96H214.429V67.7737ZM255.292 67.7737H279.814V71.51H249.111V23.96H255.292V67.7737ZM344.425 27.6963H319.903V44.7461H340.961V47.8708H319.903V67.7737H344.425V71.51H313.721V23.96H344.425V27.6963ZM370.888 23.96C374.646 23.96 378.088 24.5712 381.212 25.7939C384.337 26.9713 387.009 28.6241 389.228 30.7525C391.492 32.8356 393.235 35.3269 394.458 38.2251C395.726 41.1234 396.361 44.2482 396.361 47.5993C396.361 51.0862 395.704 54.3015 394.391 57.2449C393.123 60.1431 391.356 62.6569 389.092 64.7852C386.873 66.9135 384.269 68.5665 381.28 69.7438C378.291 70.9211 375.099 71.51 371.703 71.51H355.264V23.96H370.888ZM546.493 71.51H539.904L533.383 57.5164H509.947L503.97 71.51H500.846L520.952 23.96H524.349L546.493 71.51ZM584.35 27.6963H566.145V71.51H559.963V27.6963H541.759V23.96H584.35V27.6963ZM602.758 71.51H596.576V23.96H602.758V71.51ZM642.709 26.134C639.992 26.134 637.478 26.6771 635.168 27.764C632.859 28.8055 630.844 30.2776 629.123 32.1796C627.447 34.0814 626.111 36.368 625.115 39.0396C624.164 41.6661 623.689 44.5647 623.689 47.7345C623.689 50.9045 624.164 53.8262 625.115 56.4981C626.111 59.1245 627.447 61.3886 629.123 63.2905C630.844 65.1925 632.859 66.6869 635.168 67.7737C637.478 68.8153 639.992 69.3361 642.709 69.3361C645.381 69.3361 647.894 68.8153 650.249 67.7737C652.649 66.6869 654.732 65.1924 656.498 63.2905C658.31 61.3886 659.736 59.1244 660.778 56.4981C661.819 53.8262 662.34 50.9045 662.34 47.7345C662.34 44.5647 661.819 41.6661 660.778 39.0396C659.736 36.3681 658.31 34.0814 656.498 32.1796C654.732 30.2776 652.649 28.8055 650.249 27.764C647.894 26.6771 645.381 26.134 642.709 26.134ZM361.446 68.5206H368.917C372.631 68.5206 375.778 67.9093 378.359 66.6867C380.986 65.4187 383.137 63.7883 384.813 61.7958C386.488 59.8032 387.711 57.584 388.481 55.1386C389.251 52.6481 389.636 50.1798 389.636 47.7345C389.636 45.0175 389.183 42.4134 388.277 39.9227C387.372 37.387 386.035 35.1684 384.27 33.2665C382.549 31.3193 380.397 29.7792 377.816 28.6471C375.235 27.515 372.269 26.9485 368.917 26.9485H361.446V68.5206ZM511.238 54.4594H531.957L521.292 31.5679H521.02L511.238 54.4594Z" fill="#03182C"/>
<path d="M137.442 23.1445C140.159 23.1445 142.582 23.4167 144.71 23.96C146.838 24.5034 148.695 25.2507 150.28 26.2016C151.865 27.1526 153.179 28.2846 154.22 29.5978C155.307 30.9111 156.19 32.3375 156.87 33.8772H151.843C151.526 32.9264 150.96 31.9981 150.145 31.0926C149.375 30.1416 148.356 29.304 147.088 28.5795C145.865 27.8549 144.439 27.2661 142.809 26.8132C141.224 26.3604 139.457 26.134 137.51 26.134C134.657 26.134 132.008 26.6549 129.563 27.6963C127.163 28.7379 125.079 30.1867 123.313 32.0433C121.547 33.9 120.166 36.1192 119.169 38.7005C118.218 41.2364 117.743 44.0446 117.743 47.1239C117.743 50.022 118.196 52.807 119.102 55.4787C120.053 58.1505 121.433 60.5058 123.245 62.5436C125.056 64.5815 127.321 66.2109 130.038 67.4336C132.755 68.6563 135.88 69.2684 139.412 69.2684C145.752 69.2684 151.231 67.0939 155.85 62.7465L157.888 64.5814C157.299 65.2605 156.439 66.0528 155.307 66.9582C154.175 67.8639 152.749 68.7248 151.028 69.5399C149.352 70.3098 147.36 70.9666 145.05 71.51C142.786 72.0535 140.204 72.3246 137.306 72.3246C132.732 72.3245 128.792 71.623 125.486 70.2192C122.181 68.7701 119.464 66.8908 117.335 64.5814C115.207 62.2266 113.622 59.5544 112.581 56.5657C111.584 53.5316 111.086 50.4292 111.086 47.2592C111.086 43.5911 111.72 40.2855 112.988 37.342C114.256 34.3532 116.045 31.8172 118.355 29.7341C120.664 27.6057 123.427 25.9752 126.642 24.8431C129.902 23.7111 133.502 23.1445 137.442 23.1445ZM409.991 55.0033C409.991 55.909 410.013 56.8147 410.058 57.7203C410.104 58.626 410.262 59.5316 410.534 60.4373C410.805 61.2977 411.213 62.1809 411.757 63.0866C412.3 63.9922 413.092 64.898 414.134 65.8036C415.447 66.981 416.829 67.8642 418.278 68.453C419.772 69.0416 421.471 69.3361 423.373 69.3361C425.591 69.336 427.72 69.0192 429.757 68.3853C431.795 67.7513 433.63 66.5513 435.26 64.7852C436.052 63.9134 436.671 63.0411 437.117 62.1692L437.478 61.4223C437.884 60.5506 438.186 59.679 438.385 58.8073C438.611 57.7657 438.746 56.7465 438.791 55.7502C438.837 54.7087 438.86 53.6894 438.86 52.6931V23.96H441.848V54.9357C441.848 57.3357 441.464 59.5999 440.694 61.7281C439.924 63.8112 438.769 65.6457 437.229 67.2307C435.735 68.8155 433.855 70.0604 431.591 70.9661C429.372 71.8717 426.814 72.3245 423.916 72.3246C419.297 72.3246 415.651 71.691 412.979 70.4231C410.307 69.1098 408.292 67.5017 406.934 65.5997C405.575 63.6525 404.714 61.5692 404.352 59.3503C403.99 57.0863 403.809 55.026 403.809 53.1695V23.96H409.991V55.0033ZM477.017 23.1445C479.734 23.1446 482.157 23.4166 484.285 23.96C486.413 24.5034 488.27 25.2506 489.855 26.2016C491.44 27.1526 492.754 28.2846 493.795 29.5978C494.882 30.9111 495.766 32.3375 496.445 33.8772H491.418C491.101 32.9263 490.534 31.9982 489.719 31.0926C488.949 30.1417 487.931 29.304 486.663 28.5795C485.44 27.855 484.014 27.2661 482.384 26.8132C480.799 26.3604 479.032 26.134 477.085 26.134C474.232 26.134 471.582 26.6548 469.137 27.6963C466.737 28.7379 464.653 30.1867 462.887 32.0433C461.121 33.9 459.741 36.1193 458.744 38.7005C457.793 41.2365 457.317 44.0445 457.317 47.1239C457.317 50.022 457.771 52.807 458.677 55.4787C459.628 58.1505 461.008 60.5058 462.82 62.5436C464.631 64.5812 466.895 66.211 469.612 67.4336C472.329 68.6563 475.454 69.2684 478.986 69.2684C485.326 69.2684 490.806 67.0939 495.425 62.7465L497.463 64.5814C496.875 65.2605 496.014 66.0528 494.882 66.9582C493.75 67.8639 492.323 68.7248 490.602 69.5399C488.927 70.3097 486.934 70.9667 484.625 71.51C482.361 72.0535 479.779 72.3246 476.881 72.3246C472.307 72.3246 468.367 71.623 465.061 70.2192C461.756 68.7701 459.039 66.8908 456.91 64.5814C454.782 62.2265 453.196 59.5545 452.155 56.5657C451.158 53.5316 450.661 50.4292 450.661 47.2592C450.661 43.5912 451.295 40.2855 452.562 37.342C453.83 34.3533 455.619 31.8172 457.929 29.7341C460.238 27.6057 463.001 25.9753 466.216 24.8431C469.477 23.711 473.077 23.1445 477.017 23.1445ZM642.572 23.1445C647.101 23.1445 651.019 23.9597 654.324 25.59C657.675 27.175 660.438 29.1902 662.612 31.6356C664.785 34.081 666.393 36.753 667.435 39.6512C668.476 42.5041 668.997 45.1986 668.997 47.7345C668.997 49.4101 668.748 51.1765 668.249 53.0332C667.797 54.8899 667.095 56.7467 666.144 58.6034C665.238 60.4148 664.061 62.158 662.612 63.8335C661.162 65.4638 659.442 66.9135 657.449 68.1815C655.502 69.4494 653.283 70.4677 650.792 71.2376C648.347 71.9621 645.607 72.3246 642.572 72.3246C638.089 72.3245 634.24 71.5325 631.025 69.9477C627.81 68.3174 625.16 66.2789 623.077 63.8335C620.994 61.3882 619.454 58.7393 618.458 55.8865C617.507 52.9882 617.032 50.2705 617.032 47.7345C617.032 45.1535 617.507 42.4139 618.458 39.516C619.454 36.6177 620.994 33.9681 623.077 31.5679C625.16 29.1225 627.81 27.1074 631.025 25.5224C634.24 23.9375 638.089 23.1446 642.572 23.1445ZM718.601 60.302H718.872V23.96H721.997V72.3246H721.657L683.957 35.168H683.685V71.51H680.56V23.1445H680.9L718.601 60.302ZM198.088 27.6963H173.566V44.7461H194.623V47.8708H173.566V67.7737H198.088V71.51H167.384V23.96H198.088V27.6963ZM214.429 67.7737H238.95V71.51H208.247V23.96H214.429V67.7737ZM255.292 67.7737H279.814V71.51H249.111V23.96H255.292V67.7737ZM344.425 27.6963H319.903V44.7461H340.961V47.8708H319.903V67.7737H344.425V71.51H313.721V23.96H344.425V27.6963ZM370.888 23.96C374.646 23.96 378.088 24.5712 381.212 25.7939C384.337 26.9713 387.009 28.6241 389.228 30.7525C391.492 32.8356 393.235 35.3269 394.458 38.2251C395.726 41.1234 396.361 44.2482 396.361 47.5993C396.361 51.0862 395.704 54.3015 394.391 57.2449C393.123 60.1431 391.356 62.6569 389.092 64.7852C386.873 66.9135 384.269 68.5665 381.28 69.7438C378.291 70.9211 375.099 71.51 371.703 71.51H355.264V23.96H370.888ZM546.493 71.51H539.904L533.383 57.5164H509.947L503.97 71.51H500.846L520.952 23.96H524.349L546.493 71.51ZM584.35 27.6963H566.145V71.51H559.963V27.6963H541.759V23.96H584.35V27.6963ZM602.758 71.51H596.576V23.96H602.758V71.51ZM642.709 26.134C639.992 26.134 637.478 26.6771 635.168 27.764C632.859 28.8055 630.844 30.2776 629.123 32.1796C627.447 34.0814 626.111 36.368 625.115 39.0396C624.164 41.6661 623.689 44.5647 623.689 47.7345C623.689 50.9045 624.164 53.8262 625.115 56.4981C626.111 59.1245 627.447 61.3886 629.123 63.2905C630.844 65.1925 632.859 66.6869 635.168 67.7737C637.478 68.8153 639.992 69.3361 642.709 69.3361C645.381 69.3361 647.894 68.8153 650.249 67.7737C652.649 66.6869 654.732 65.1924 656.498 63.2905C658.31 61.3886 659.736 59.1244 660.778 56.4981C661.819 53.8262 662.34 50.9045 662.34 47.7345C662.34 44.5647 661.819 41.6661 660.778 39.0396C659.736 36.3681 658.31 34.0814 656.498 32.1796C654.732 30.2776 652.649 28.8055 650.249 27.764C647.894 26.6771 645.381 26.134 642.709 26.134ZM361.446 68.5206H368.917C372.631 68.5206 375.778 67.9093 378.359 66.6867C380.986 65.4187 383.137 63.7883 384.813 61.7958C386.488 59.8032 387.711 57.584 388.481 55.1386C389.251 52.6481 389.636 50.1798 389.636 47.7345C389.636 45.0175 389.183 42.4134 388.277 39.9227C387.372 37.387 386.035 35.1684 384.27 33.2665C382.549 31.3193 380.397 29.7792 377.816 28.6471C375.235 27.515 372.269 26.9485 368.917 26.9485H361.446V68.5206ZM511.238 54.4594H531.957L521.292 31.5679H521.02L511.238 54.4594Z" stroke="#03182C" stroke-width="0.578588" mask="url(#path-3-outside-1_826_8)"/>
</svg>
