<svg width="196" height="36" viewBox="0 0 196 36" fill="none" xmlns="http://www.w3.org/2000/svg">
<path d="M-0.000306543 23.8403V23.0644C-0.000306543 19.4124 1.15958 16.5518 3.47935 14.4829C5.79911 12.4139 8.90259 11.3794 12.7898 11.3794C16.6299 11.3794 19.5845 12.2023 21.6535 13.8481C23.7225 15.4782 24.8432 17.7509 25.0156 20.6663L25.0391 21.2306H16.2459V20.9249C16.2459 19.9531 15.9716 19.1773 15.423 18.5973C14.8744 18.0174 14.0672 17.7274 13.0014 17.7274C11.7788 17.7274 10.8383 18.1584 10.18 19.0205C9.53739 19.8669 9.21607 21.0817 9.21607 22.6647V24.24C9.21607 25.8231 9.52955 27.0535 10.1565 27.9312C10.7835 28.809 11.7239 29.2479 12.9779 29.2479C14.1377 29.2479 14.9685 28.9579 15.47 28.378C15.9873 27.7823 16.2537 27.0378 16.2694 26.1444V25.8388H25.0391V26.3325C24.9921 29.1695 23.9106 31.4187 21.7945 33.0802C19.6942 34.726 16.7083 35.5489 12.8368 35.5489C8.96529 35.5489 5.85397 34.5065 3.50286 32.4219C1.16741 30.3372 -0.000306543 27.4767 -0.000306543 23.8403ZM25.499 23.8168V23.0644C25.499 19.4907 26.6745 16.6537 29.0256 14.5534C31.3924 12.4531 34.5194 11.4029 38.4066 11.4029C42.2154 11.4029 45.1778 12.4139 47.2938 14.4358C49.4098 16.4578 50.4678 19.24 50.4678 22.7823V25.0159H30.7655V21.2071H41.6511V20.9014C41.6668 19.9296 41.3925 19.1302 40.8282 18.5033C40.264 17.8763 39.4176 17.5628 38.289 17.5628C37.0821 17.5628 36.1574 18.0017 35.5147 18.8794C34.8721 19.7572 34.5508 20.9484 34.5508 22.4531V24.0519C34.5508 25.7604 34.8956 27.0613 35.5853 27.9548C36.2906 28.8482 37.3094 29.2949 38.6417 29.2949C39.6449 29.2949 40.4834 29.0676 41.1574 28.6131C41.8471 28.1428 42.3957 27.5629 42.8032 26.8732L50.2092 29.2479C49.4412 31.2542 48.1089 32.8059 46.2123 33.9031C44.3157 35.0003 41.8236 35.5489 38.7358 35.5489C34.5821 35.5489 31.3376 34.4987 29.0021 32.3984C26.6667 30.298 25.499 27.4375 25.499 23.8168ZM52.0797 34.9141V-2.14092e-05H61.2726V34.9141H52.0797ZM64.1306 34.9141V-2.14092e-05H73.3235V34.9141H64.1306Z" fill="#071F34"/>
<path d="M81.5007 23.8403V23.0644C81.5007 19.4124 82.6606 16.5518 84.9803 14.4829C87.3001 12.4139 90.4036 11.3794 94.2908 11.3794C98.1309 11.3794 101.085 12.2023 103.154 13.8481C105.223 15.4782 106.344 17.7509 106.517 20.6663L106.54 21.2306H97.7469V20.9249C97.7469 19.9531 97.4726 19.1773 96.924 18.5973C96.3754 18.0174 95.5682 17.7274 94.5024 17.7274C93.2798 17.7274 92.3393 18.1584 91.681 19.0205C91.0384 19.8669 90.7171 21.0817 90.7171 22.6647V24.24C90.7171 25.8231 91.0305 27.0535 91.6575 27.9312C92.2845 28.809 93.2249 29.2479 94.4788 29.2479C95.6387 29.2479 96.4695 28.9579 96.971 28.378C97.4883 27.7823 97.7547 27.0378 97.7704 26.1444V25.8388H106.54V26.3325C106.493 29.1695 105.412 31.4187 103.296 33.0802C101.195 34.726 98.2093 35.5489 94.3378 35.5489C90.4663 35.5489 87.355 34.5065 85.0038 32.4219C82.6684 30.3372 81.5007 27.4767 81.5007 23.8403ZM108.034 34.9141V-2.14092e-05H117.227V34.9141H108.034ZM120.132 34.9141V12.1082H129.372V34.9141H120.132ZM119.662 4.96083C119.662 3.67556 120.101 2.59404 120.979 1.71629C121.872 0.838544 123.142 0.399668 124.788 0.399668C126.418 0.399668 127.664 0.838544 128.526 1.71629C129.404 2.57837 129.842 3.65988 129.842 4.96083C129.842 6.24611 129.396 7.33546 128.502 8.22889C127.625 9.12231 126.363 9.56902 124.717 9.56902C123.087 9.56902 121.833 9.12231 120.955 8.22889C120.093 7.33546 119.662 6.24611 119.662 4.96083ZM132.277 34.9141V12.1082H141.212L141.259 14.9296H141.353C141.87 13.9421 142.74 13.1349 143.962 12.5079C145.201 11.8653 146.69 11.544 148.429 11.544C150.812 11.544 152.756 12.2023 154.26 13.5189C155.781 14.8355 156.541 17.0691 156.541 20.2196V34.9141H147.442V21.3011C147.442 20.1882 147.199 19.3967 146.713 18.9265C146.243 18.4562 145.585 18.2211 144.738 18.2211C144.017 18.2211 143.359 18.4406 142.763 18.8794C142.168 19.3183 141.705 19.9218 141.376 20.6898V34.9141H132.277ZM159.234 34.9141V12.1082H168.474V34.9141H159.234ZM158.764 4.96083C158.764 3.67556 159.203 2.59404 160.081 1.71629C160.974 0.838544 162.244 0.399668 163.889 0.399668C165.52 0.399668 166.766 0.838544 167.628 1.71629C168.505 2.57837 168.944 3.65988 168.944 4.96083C168.944 6.24611 168.498 7.33546 167.604 8.22889C166.726 9.12231 165.465 9.56902 163.819 9.56902C162.189 9.56902 160.935 9.12231 160.057 8.22889C159.195 7.33546 158.764 6.24611 158.764 4.96083ZM170.345 23.8403V23.0644C170.345 19.4124 171.505 16.5518 173.824 14.4829C176.144 12.4139 179.248 11.3794 183.135 11.3794C186.975 11.3794 189.929 12.2023 191.998 13.8481C194.067 15.4782 195.188 17.7509 195.361 20.6663L195.384 21.2306H186.591V20.9249C186.591 19.9531 186.317 19.1773 185.768 18.5973C185.219 18.0174 184.412 17.7274 183.346 17.7274C182.124 17.7274 181.183 18.1584 180.525 19.0205C179.882 19.8669 179.561 21.0817 179.561 22.6647V24.24C179.561 25.8231 179.875 27.0535 180.502 27.9312C181.128 28.809 182.069 29.2479 183.323 29.2479C184.483 29.2479 185.313 28.9579 185.815 28.378C186.332 27.7823 186.599 27.0378 186.614 26.1444V25.8388H195.384V26.3325C195.337 29.1695 194.256 31.4187 192.14 33.0802C190.039 34.726 187.053 35.5489 183.182 35.5489C179.31 35.5489 176.199 34.5065 173.848 32.4219C171.512 30.3372 170.345 27.4767 170.345 23.8403Z" fill="#5EB2EF"/>
</svg>
