<svg width="277" height="72" viewBox="0 0 277 72" fill="none" xmlns="http://www.w3.org/2000/svg">
<path d="M77.0836 54.294C74.0285 54.294 71.3006 53.5739 68.9001 52.1336C66.4996 50.6933 64.601 48.6856 63.2044 46.1105C61.8077 43.4918 61.1094 40.4802 61.1094 37.0759C61.1094 33.5406 61.8077 30.5072 63.2044 27.9758C64.601 25.4007 66.4996 23.393 68.9001 21.9527C71.3443 20.4688 74.0721 19.7268 77.0836 19.7268C80.9244 19.7268 84.1106 20.7306 86.642 22.7383C89.2171 24.7024 90.8538 27.3211 91.5521 30.5945H86.9694C86.4893 28.4122 85.3326 26.7319 83.4995 25.5535C81.7101 24.3314 79.5496 23.7203 77.0182 23.7203C75.0541 23.7203 73.221 24.2223 71.5188 25.2261C69.8167 26.1863 68.4418 27.6484 67.3943 29.6125C66.3468 31.5765 65.8231 34.0643 65.8231 37.0759C65.8231 39.3018 66.1286 41.244 66.7396 42.9026C67.3507 44.5611 68.18 45.9577 69.2274 47.0925C70.2749 48.1837 71.4752 49.0129 72.8282 49.5803C74.1812 50.1477 75.5779 50.4314 77.0182 50.4314C78.6767 50.4314 80.1825 50.1695 81.5355 49.6458C82.9321 49.0784 84.1106 48.271 85.0708 47.2235C86.031 46.176 86.6638 44.9103 86.9694 43.4263H91.5521C90.8974 46.6124 89.2826 49.2312 86.7075 51.2825C84.1324 53.2902 80.9244 54.294 77.0836 54.294Z" fill="#77D4FB"/>
<path d="M108.343 54.294C105.288 54.294 102.582 53.5739 100.225 52.1336C97.9119 50.6933 96.0788 48.6856 94.7258 46.1105C93.4164 43.4918 92.7618 40.4366 92.7618 36.9449C92.7618 33.4533 93.4164 30.4199 94.7258 27.8448C96.0352 25.2698 97.8683 23.2839 100.225 21.8872C102.626 20.4469 105.375 19.7268 108.474 19.7268C111.66 19.7268 114.344 20.4469 116.527 21.8872C118.753 23.3275 120.433 25.2043 121.568 27.5175C122.746 29.8307 123.335 32.3622 123.335 35.1118C123.335 35.5483 123.335 36.0066 123.335 36.4867C123.335 36.9231 123.314 37.4469 123.27 38.0579H96.2316V34.1953H118.884C118.796 30.8346 117.749 28.2377 115.741 26.4045C113.777 24.5714 111.289 23.6549 108.278 23.6549C106.314 23.6549 104.481 24.1132 102.778 25.0297C101.12 25.9026 99.7669 27.212 98.7194 28.9578C97.7155 30.66 97.2136 32.8204 97.2136 35.4392V37.1413C97.2136 40.1092 97.7373 42.5752 98.7848 44.5393C99.8323 46.5033 101.207 47.9654 102.909 48.9256C104.655 49.8858 106.466 50.3659 108.343 50.3659C110.831 50.3659 112.882 49.8204 114.497 48.7292C116.112 47.5945 117.269 46.045 117.967 44.081H122.484C121.917 46.0014 121 47.7472 119.735 49.3185C118.513 50.8897 116.941 52.1118 115.021 52.9847C113.101 53.8576 110.875 54.294 108.343 54.294Z" fill="#77D4FB"/>
<path d="M125.599 53.5084V6.37125H130.181V53.5084H125.599Z" fill="#77D4FB"/>
<path d="M134.235 53.5084V6.37125H138.818V53.5084H134.235Z" fill="#77D4FB"/>
<path d="M170.197 54.294C167.142 54.294 164.414 53.5739 162.013 52.1336C159.613 50.6933 157.714 48.6856 156.318 46.1105C154.921 43.4918 154.223 40.4802 154.223 37.0759C154.223 33.5406 154.921 30.5072 156.318 27.9758C157.714 25.4007 159.613 23.393 162.013 21.9527C164.458 20.4688 167.185 19.7268 170.197 19.7268C174.038 19.7268 177.224 20.7306 179.755 22.7383C182.33 24.7024 183.967 27.3211 184.665 30.5945H180.083C179.603 28.4122 178.446 26.7319 176.613 25.5535C174.823 24.3314 172.663 23.7203 170.131 23.7203C168.167 23.7203 166.334 24.2223 164.632 25.2261C162.93 26.1863 161.555 27.6484 160.508 29.6125C159.46 31.5765 158.936 34.0643 158.936 37.0759C158.936 39.3018 159.242 41.244 159.853 42.9026C160.464 44.5611 161.293 45.9577 162.341 47.0925C163.388 48.1837 164.588 49.0129 165.941 49.5803C167.295 50.1477 168.691 50.4314 170.131 50.4314C171.79 50.4314 173.296 50.1695 174.649 49.6458C176.045 49.0784 177.224 48.271 178.184 47.2235C179.144 46.176 179.777 44.9103 180.083 43.4263H184.665C184.011 46.6124 182.396 49.2312 179.821 51.2825C177.246 53.2902 174.038 54.294 170.197 54.294Z" fill="#77D4FB"/>
<path d="M187.315 53.5084V6.37125H191.898V53.5084H187.315Z" fill="#77D4FB"/>
<path d="M196.606 53.5084V20.5124H201.124V53.5084H196.606ZM198.898 12.7217C197.981 12.7217 197.195 12.4162 196.541 11.8051C195.886 11.1504 195.559 10.343 195.559 9.38279C195.559 8.37894 195.864 7.59332 196.475 7.02593C197.13 6.41489 197.916 6.10938 198.832 6.10938C199.749 6.10938 200.534 6.41489 201.189 7.02593C201.844 7.59332 202.171 8.37894 202.171 9.38279C202.171 10.343 201.844 11.1504 201.189 11.8051C200.578 12.4162 199.814 12.7217 198.898 12.7217Z" fill="#77D4FB"/>
<path d="M205.866 53.5084V20.5124H210.056L210.318 26.4045C211.366 24.3096 212.872 22.6729 214.836 21.4944C216.843 20.316 219.069 19.7268 221.513 19.7268C224.045 19.7268 226.249 20.2287 228.126 21.2326C230.002 22.2364 231.465 23.764 232.512 25.8153C233.56 27.823 234.083 30.3981 234.083 33.5406V53.5084H229.5V34.0643C229.5 30.5727 228.737 27.9758 227.209 26.2736C225.681 24.5714 223.499 23.7203 220.662 23.7203C218.742 23.7203 216.996 24.2004 215.425 25.1606C213.897 26.0772 212.675 27.4302 211.759 29.2197C210.886 31.0091 210.449 33.2132 210.449 35.832V53.5084H205.866Z" fill="#77D4FB"/>
<path d="M238.173 53.5084V20.5124H242.691V53.5084H238.173ZM240.465 12.7217C239.548 12.7217 238.763 12.4162 238.108 11.8051C237.453 11.1504 237.126 10.343 237.126 9.38279C237.126 8.37894 237.432 7.59332 238.043 7.02593C238.697 6.41489 239.483 6.10938 240.399 6.10938C241.316 6.10938 242.102 6.41489 242.756 7.02593C243.411 7.59332 243.738 8.37894 243.738 9.38279C243.738 10.343 243.411 11.1504 242.756 11.8051C242.145 12.4162 241.381 12.7217 240.465 12.7217Z" fill="#77D4FB"/>
<path d="M261.968 54.294C258.912 54.294 256.185 53.5739 253.784 52.1336C251.384 50.6933 249.485 48.6856 248.088 46.1105C246.692 43.4918 245.993 40.4802 245.993 37.0759C245.993 33.5406 246.692 30.5072 248.088 27.9758C249.485 25.4007 251.384 23.393 253.784 21.9527C256.228 20.4688 258.956 19.7268 261.968 19.7268C265.808 19.7268 268.995 20.7306 271.526 22.7383C274.101 24.7024 275.738 27.3211 276.436 30.5945H271.853C271.373 28.4122 270.217 26.7319 268.384 25.5535C266.594 24.3314 264.434 23.7203 261.902 23.7203C259.938 23.7203 258.105 24.2223 256.403 25.2261C254.701 26.1863 253.326 27.6484 252.278 29.6125C251.231 31.5765 250.707 34.0643 250.707 37.0759C250.707 39.3018 251.013 41.244 251.624 42.9026C252.235 44.5611 253.064 45.9577 254.111 47.0925C255.159 48.1837 256.359 49.0129 257.712 49.5803C259.065 50.1477 260.462 50.4314 261.902 50.4314C263.561 50.4314 265.066 50.1695 266.419 49.6458C267.816 49.0784 268.995 48.271 269.955 47.2235C270.915 46.176 271.548 44.9103 271.853 43.4263H276.436C275.781 46.6124 274.167 49.2312 271.591 51.2825C269.016 53.2902 265.808 54.294 261.968 54.294Z" fill="#77D4FB"/>
<path d="M61.0655 12.3739C54.7469 5.44963 45.6828 1.10938 35.6094 1.10938C16.5526 1.10938 1.10938 16.5526 1.10938 35.6094C1.10938 54.6661 16.5526 70.1094 35.6094 70.1094C45.6828 70.1094 54.7469 65.7691 61.0655 58.8449L51.4362 49.2156C47.4593 53.4953 41.7867 56.1802 35.4883 56.1802C24.143 56.1802 14.9376 46.9748 14.9376 35.6296C14.9376 24.2843 24.143 15.0789 35.4883 15.0789C41.7867 15.0789 47.4593 17.7639 51.4362 22.0435L61.0655 12.3739Z" fill="url(#paint0_linear_1058_35)" stroke="url(#paint1_linear_1058_35)" stroke-width="2.2206" stroke-linejoin="round"/>
<path d="M35.1295 48.8137C42.3764 48.8137 48.2512 42.9389 48.2512 35.692C48.2512 28.4451 42.3764 22.5703 35.1295 22.5703C27.8826 22.5703 22.0078 28.4451 22.0078 35.692C22.0078 42.9389 27.8826 48.8137 35.1295 48.8137Z" fill="url(#paint2_linear_1058_35)" stroke="url(#paint3_linear_1058_35)" stroke-width="1.61498"/>
<defs>
<linearGradient id="paint0_linear_1058_35" x1="12.1114" y1="1.77555" x2="70.6544" y2="66.3747" gradientUnits="userSpaceOnUse">
<stop stop-color="#F8FDFF" stop-opacity="0.92"/>
<stop offset="0.45" stop-color="#DDF7FF" stop-opacity="0.58"/>
<stop offset="1" stop-color="#8BDFFF" stop-opacity="0.36"/>
</linearGradient>
<linearGradient id="paint1_linear_1058_35" x1="14.1301" y1="4.80364" x2="70.6544" y2="64.356" gradientUnits="userSpaceOnUse">
<stop stop-color="#FFD9E9" stop-opacity="0.95"/>
<stop offset="0.5" stop-color="#6FD8FF" stop-opacity="0.9"/>
<stop offset="1" stop-color="#2F9FE8" stop-opacity="0.7"/>
</linearGradient>
<linearGradient id="paint2_linear_1058_35" x1="12.1161" y1="1.77745" x2="70.6591" y2="66.3766" gradientUnits="userSpaceOnUse">
<stop stop-color="#F8FDFF" stop-opacity="0.92"/>
<stop offset="0.45" stop-color="#DDF7FF" stop-opacity="0.58"/>
<stop offset="1" stop-color="#8BDFFF" stop-opacity="0.36"/>
</linearGradient>
<linearGradient id="paint3_linear_1058_35" x1="14.1348" y1="4.80554" x2="70.6591" y2="64.3579" gradientUnits="userSpaceOnUse">
<stop stop-color="white" stop-opacity="0.95"/>
<stop offset="0.5" stop-color="#6FD8FF" stop-opacity="0.9"/>
<stop offset="1" stop-color="#2F9FE8" stop-opacity="0.7"/>
</linearGradient>
</defs>
</svg>
