<svg width="315" height="72" viewBox="0 0 315 72" fill="none" xmlns="http://www.w3.org/2000/svg">
<path d="M87.9387 53.1505C84.9175 53.1505 82.1942 52.4484 79.7687 51.0442C77.3858 49.64 75.5135 47.6826 74.1519 45.1721C72.7902 42.6189 72.1094 39.6828 72.1094 36.3638C72.1094 32.9596 72.7902 30.0023 74.1519 27.4917C75.5135 24.9812 77.3858 23.0238 79.7687 21.6196C82.1942 20.1728 84.9175 19.4494 87.9387 19.4494C91.7684 19.4494 94.9598 20.4494 97.5129 22.4493C100.066 24.4067 101.683 27.0449 102.364 30.364H96.8746C96.4491 28.364 95.4066 26.8109 93.747 25.7045C92.0875 24.5982 90.1301 24.045 87.8749 24.045C86.0451 24.045 84.3431 24.5131 82.7686 25.4492C81.1942 26.3428 79.9389 27.7045 79.0028 29.5342C78.0666 31.3639 77.5986 33.6192 77.5986 36.3C77.5986 38.2999 77.8752 40.0871 78.4283 41.6615C78.9815 43.1934 79.7262 44.4699 80.6623 45.4912C81.5985 46.5124 82.6835 47.2996 83.9175 47.8528C85.1941 48.3634 86.5132 48.6188 87.8749 48.6188C89.4067 48.6188 90.7897 48.3847 92.0237 47.9167C93.2577 47.406 94.3002 46.6614 95.1512 45.6827C96.0023 44.704 96.5767 43.5551 96.8746 42.236H102.364C101.683 45.4699 100.045 48.1081 97.4491 50.1506C94.8959 52.1506 91.7258 53.1505 87.9387 53.1505Z" fill="#77D4FB"/>
<path d="M118.976 53.1505C115.955 53.1505 113.274 52.4484 110.934 51.0442C108.636 49.64 106.827 47.6826 105.508 45.1721C104.189 42.6189 103.53 39.6616 103.53 36.3C103.53 32.8958 104.168 29.9385 105.444 27.4279C106.764 24.9173 108.593 22.9599 110.934 21.5557C113.317 20.1515 116.04 19.4494 119.104 19.4494C122.253 19.4494 124.912 20.1515 127.082 21.5557C129.295 22.9599 130.976 24.8109 132.125 27.1088C133.316 29.364 133.912 31.8533 133.912 34.5766C133.912 35.0021 133.912 35.4489 133.912 35.917C133.912 36.3851 133.89 36.917 133.848 37.5127H107.551V33.3639H128.678C128.55 30.4278 127.571 28.13 125.742 26.4705C123.955 24.811 121.699 23.9812 118.976 23.9812C117.146 23.9812 115.444 24.4067 113.87 25.2577C112.338 26.0662 111.104 27.279 110.168 28.8959C109.232 30.4704 108.764 32.449 108.764 34.8319V36.6191C108.764 39.2573 109.232 41.47 110.168 43.2572C111.146 45.0444 112.402 46.3848 113.934 47.2784C115.508 48.172 117.189 48.6188 118.976 48.6188C121.231 48.6188 123.082 48.1294 124.529 47.1507C126.018 46.1295 127.082 44.7678 127.72 43.0657H133.018C132.508 44.9806 131.614 46.7039 130.337 48.2358C129.061 49.7677 127.465 50.9804 125.55 51.874C123.678 52.725 121.487 53.1505 118.976 53.1505Z" fill="#77D4FB"/>
<path d="M136.041 52.3846V6.42851H141.403V52.3846H136.041Z" fill="#77D4FB"/>
<path d="M145.146 52.3846V6.42851H150.508V52.3846H145.146Z" fill="#77D4FB"/>
<path d="M180.589 53.1505C177.568 53.1505 174.844 52.4484 172.419 51.0442C170.036 49.64 168.164 47.6826 166.802 45.1721C165.44 42.6189 164.76 39.6828 164.76 36.3638C164.76 32.9596 165.44 30.0023 166.802 27.4917C168.164 24.9812 170.036 23.0238 172.419 21.6196C174.844 20.1728 177.568 19.4494 180.589 19.4494C184.419 19.4494 187.61 20.4494 190.163 22.4493C192.716 24.4067 194.333 27.0449 195.014 30.364H189.525C189.099 28.364 188.057 26.8109 186.397 25.7045C184.738 24.5982 182.78 24.045 180.525 24.045C178.695 24.045 176.993 24.5131 175.419 25.4492C173.844 26.3428 172.589 27.7045 171.653 29.5342C170.717 31.3639 170.249 33.6192 170.249 36.3C170.249 38.2999 170.525 40.0871 171.079 41.6615C171.632 43.1934 172.376 44.4699 173.312 45.4912C174.249 46.5124 175.334 47.2996 176.568 47.8528C177.844 48.3634 179.163 48.6188 180.525 48.6188C182.057 48.6188 183.44 48.3847 184.674 47.9167C185.908 47.406 186.95 46.6614 187.801 45.6827C188.652 44.704 189.227 43.5551 189.525 42.236H195.014C194.333 45.4699 192.695 48.1081 190.099 50.1506C187.546 52.1506 184.376 53.1505 180.589 53.1505Z" fill="#77D4FB"/>
<path d="M197.52 52.3846V6.42851H202.882V52.3846H197.52Z" fill="#77D4FB"/>
<path d="M207.136 52.3846V20.2153H212.498V52.3846H207.136ZM209.817 13.3858C208.753 13.3858 207.86 13.0453 207.136 12.3645C206.455 11.6411 206.115 10.7475 206.115 9.68374C206.115 8.61994 206.455 7.7689 207.136 7.13062C207.86 6.44979 208.753 6.10938 209.817 6.10938C210.838 6.10938 211.711 6.44979 212.434 7.13062C213.157 7.7689 213.519 8.61994 213.519 9.68374C213.519 10.7475 213.157 11.6411 212.434 12.3645C211.711 13.0453 210.838 13.3858 209.817 13.3858Z" fill="#77D4FB"/>
<path d="M216.853 52.3846V20.2153H221.704L221.959 25.8322C222.981 23.8323 224.427 22.2791 226.3 21.1728C228.214 20.0239 230.385 19.4494 232.81 19.4494C235.321 19.4494 237.491 19.96 239.321 20.9813C241.15 21.96 242.576 23.4706 243.597 25.5131C244.618 27.513 245.129 30.0661 245.129 33.1724V52.3846H239.767V33.7469C239.767 30.5129 239.044 28.0874 237.597 26.4705C236.193 24.8535 234.193 24.045 231.597 24.045C229.81 24.045 228.214 24.4918 226.81 25.3854C225.406 26.2364 224.278 27.4917 223.427 29.1512C222.619 30.7682 222.215 32.7894 222.215 35.2149V52.3846H216.853Z" fill="#77D4FB"/>
<path d="M248.909 52.3846V20.2153H254.27V52.3846H248.909ZM251.589 13.3858C250.526 13.3858 249.632 13.0453 248.909 12.3645C248.228 11.6411 247.887 10.7475 247.887 9.68374C247.887 8.61994 248.228 7.7689 248.909 7.13062C249.632 6.44979 250.526 6.10938 251.589 6.10938C252.611 6.10938 253.483 6.44979 254.206 7.13062C254.93 7.7689 255.291 8.61994 255.291 9.68374C255.291 10.7475 254.93 11.6411 254.206 12.3645C253.483 13.0453 252.611 13.3858 251.589 13.3858Z" fill="#77D4FB"/>
<path d="M273.114 53.1505C270.093 53.1505 267.37 52.4484 264.944 51.0442C262.562 49.64 260.689 47.6826 259.328 45.1721C257.966 42.6189 257.285 39.6828 257.285 36.3638C257.285 32.9596 257.966 30.0023 259.328 27.4917C260.689 24.9812 262.562 23.0238 264.944 21.6196C267.37 20.1728 270.093 19.4494 273.114 19.4494C276.944 19.4494 280.135 20.4494 282.689 22.4493C285.242 24.4067 286.859 27.0449 287.539 30.364H282.05C281.625 28.364 280.582 26.8109 278.923 25.7045C277.263 24.5982 275.306 24.045 273.051 24.045C271.221 24.045 269.519 24.5131 267.944 25.4492C266.37 26.3428 265.115 27.7045 264.178 29.5342C263.242 31.3639 262.774 33.6192 262.774 36.3C262.774 38.2999 263.051 40.0871 263.604 41.6615C264.157 43.1934 264.902 44.4699 265.838 45.4912C266.774 46.5124 267.859 47.2996 269.093 47.8528C270.37 48.3634 271.689 48.6188 273.051 48.6188C274.582 48.6188 275.965 48.3847 277.199 47.9167C278.433 47.406 279.476 46.6614 280.327 45.6827C281.178 44.704 281.752 43.5551 282.05 42.236H287.539C286.859 45.4699 285.22 48.1081 282.625 50.1506C280.072 52.1506 276.902 53.1505 273.114 53.1505Z" fill="#77D4FB"/>
<path d="M302.173 53.1505C299.492 53.1505 297.152 52.7037 295.152 51.8102C293.195 50.9166 291.62 49.6826 290.429 48.1081C289.28 46.4912 288.578 44.5976 288.322 42.4275H293.812C294.024 43.5338 294.471 44.555 295.152 45.4912C295.833 46.4273 296.748 47.1933 297.897 47.789C299.088 48.3422 300.535 48.6188 302.237 48.6188C303.726 48.6188 304.96 48.406 305.939 47.9805C306.918 47.5124 307.641 46.8954 308.109 46.1295C308.62 45.3635 308.875 44.5338 308.875 43.6402C308.875 42.3211 308.556 41.3211 307.918 40.6403C307.322 39.9594 306.428 39.4275 305.237 39.0446C304.045 38.6191 302.599 38.2574 300.896 37.9595C299.492 37.7042 298.109 37.3638 296.748 36.9383C295.386 36.5127 294.173 35.9596 293.109 35.2787C292.046 34.5553 291.195 33.683 290.556 32.6618C289.961 31.6405 289.663 30.3853 289.663 28.8959C289.663 27.0662 290.131 25.4492 291.067 24.045C292.003 22.5982 293.344 21.4706 295.088 20.6621C296.875 19.8536 298.939 19.4494 301.279 19.4494C304.726 19.4494 307.513 20.2792 309.641 21.9387C311.769 23.5982 313.024 26.0024 313.407 29.1512H308.109C307.896 27.5343 307.194 26.279 306.003 25.3854C304.854 24.4493 303.258 23.9812 301.216 23.9812C299.216 23.9812 297.684 24.3854 296.62 25.1939C295.599 26.0024 295.088 27.0662 295.088 28.3853C295.088 29.2364 295.365 30.0023 295.918 30.6831C296.514 31.3214 297.365 31.8746 298.471 32.3426C299.62 32.8107 301.024 33.1937 302.684 33.4915C304.811 33.8745 306.747 34.3851 308.492 35.0234C310.237 35.6617 311.641 36.6191 312.705 37.8957C313.811 39.1297 314.364 40.8956 314.364 43.1934C314.364 45.1933 313.854 46.938 312.832 48.4273C311.854 49.9166 310.449 51.0868 308.62 51.9378C306.79 52.7463 304.641 53.1505 302.173 53.1505Z" fill="#77D4FB"/>
<path d="M61.0655 12.3739C54.7469 5.44963 45.6828 1.10938 35.6094 1.10938C16.5526 1.10938 1.10938 16.5526 1.10938 35.6094C1.10938 54.6661 16.5526 70.1094 35.6094 70.1094C45.6828 70.1094 54.7469 65.7691 61.0655 58.8449L51.4362 49.2156C47.4593 53.4953 41.7867 56.1802 35.4883 56.1802C24.143 56.1802 14.9376 46.9748 14.9376 35.6296C14.9376 24.2843 24.143 15.0789 35.4883 15.0789C41.7867 15.0789 47.4593 17.7639 51.4362 22.0435L61.0655 12.3739Z" fill="url(#paint0_linear_1060_28)" stroke="url(#paint1_linear_1060_28)" stroke-width="2.2206" stroke-linejoin="round"/>
<path d="M35.1295 48.8137C42.3764 48.8137 48.2512 42.9389 48.2512 35.692C48.2512 28.4451 42.3764 22.5703 35.1295 22.5703C27.8826 22.5703 22.0078 28.4451 22.0078 35.692C22.0078 42.9389 27.8826 48.8137 35.1295 48.8137Z" fill="url(#paint2_linear_1060_28)" stroke="url(#paint3_linear_1060_28)" stroke-width="1.61498"/>
<defs>
<linearGradient id="paint0_linear_1060_28" x1="12.1114" y1="1.77555" x2="70.6544" y2="66.3747" gradientUnits="userSpaceOnUse">
<stop stop-color="#F8FDFF" stop-opacity="0.92"/>
<stop offset="0.45" stop-color="#DDF7FF" stop-opacity="0.58"/>
<stop offset="1" stop-color="#8BDFFF" stop-opacity="0.36"/>
</linearGradient>
<linearGradient id="paint1_linear_1060_28" x1="14.1301" y1="4.80364" x2="70.6544" y2="64.356" gradientUnits="userSpaceOnUse">
<stop offset="0.5" stop-color="#6FD8FF" stop-opacity="0.9"/>
<stop offset="1" stop-color="#2F9FE8" stop-opacity="0.7"/>
</linearGradient>
<linearGradient id="paint2_linear_1060_28" x1="12.1161" y1="1.77745" x2="70.6591" y2="66.3766" gradientUnits="userSpaceOnUse">
<stop stop-color="#F8FDFF" stop-opacity="0.92"/>
<stop offset="0.45" stop-color="#DDF7FF" stop-opacity="0.58"/>
<stop offset="1" stop-color="#8BDFFF" stop-opacity="0.36"/>
</linearGradient>
<linearGradient id="paint3_linear_1060_28" x1="14.1348" y1="4.80554" x2="70.6591" y2="64.3579" gradientUnits="userSpaceOnUse">
<stop offset="0.5" stop-color="#6FD8FF" stop-opacity="0.9"/>
<stop offset="1" stop-color="#2F9FE8" stop-opacity="0.7"/>
</linearGradient>
</defs>
</svg>
